<svg width="292" height="28" viewBox="0 0 292 28" fill="none" xmlns="http://www.w3.org/2000/svg">
<path d="M0.2 21.4C0.8 25.04 3.2 27.4 8.2 27.4C12.84 27.4 15.6 24.6 15.6 21.6C15.6 15 6.2 16 6.2 14C6.2 13.2 6.76 12.6 8 12.6C9.24 12.6 10 13.4 10.2 14.2L15.4 13.8C14.8 10.6 12.4 8.2 7.6 8.2C3.24 8.2 0.6 10.8 0.6 13.8C0.6 20.4 10 19.44 10 21.4C10 22.2 9.2 23 7.8 23C6.4 23 5.6 22.24 5.4 21L0.2 21.4ZM30.4125 27H34.4125V15.8C34.4125 11.4 31.2125 8.2 26.8125 8.2C21.9725 8.2 19.4525 10.76 18.8125 14.4L24.2125 14.8C24.2925 14.48 24.4525 14.2 24.6525 13.92C25.0125 13.48 25.6125 13 26.6125 13C28.0125 13 29.0125 14 29.0125 15.8C20.6125 15.8 18.0125 18.36 18.0125 22C18.0125 25.04 20.2125 27.2 24.2125 27.2C25.8125 27.2 27.1325 26.72 28.0925 26.2C28.6525 25.92 29.1725 25.56 29.6125 25.2L30.4125 27ZM29.0125 19.8C29.0125 21.84 27.6525 23.2 25.6125 23.2C24.2125 23.2 23.4125 22.4 23.4125 21.4C23.4125 20 24.3725 19 29.0125 19V19.8ZM38.2266 27H43.6266V16.6C43.6266 14.56 44.8266 13.4 46.2266 13.4C47.6266 13.4 48.8266 14.56 48.8266 16.6V27H54.2266V16.6C54.2266 14.56 55.4266 13.4 56.8266 13.4C58.2266 13.4 59.4266 14.56 59.4266 16.6V27H64.8266V16C64.8266 11 62.2266 8.4 58.2266 8.4C56.6266 8.4 55.2666 9 54.3066 9.6C53.7466 9.96 53.2666 10.36 52.8266 10.8C52.5466 10.36 52.1466 9.96 51.6666 9.6C50.8266 9 49.5066 8.4 47.6266 8.4C46.2266 8.4 45.0666 8.92 44.2666 9.4C43.7866 9.68 43.3866 10.04 43.0266 10.4L42.2266 8.6H38.2266V27ZM68.4172 19.4C68.4172 24.2 71.4572 27.2 75.8172 27.2C77.4172 27.2 78.7372 26.72 79.6972 26.2C80.2572 25.92 80.7772 25.56 81.2172 25.2L82.0172 27H86.0172V8.6H80.6172V18.4C80.6172 20.8 79.2572 22.2 77.2172 22.2C75.1772 22.2 73.8172 20.8 73.8172 18.4V8.6H68.4172V19.4ZM101.423 21.2C101.263 21.44 101.063 21.64 100.783 21.8C100.343 22.12 99.6234 22.4 98.6234 22.4C96.5834 22.4 95.2634 21 94.8234 19.6H107.423L107.503 19C107.543 18.64 107.623 18.24 107.623 17.8C107.623 12 103.623 8.2 98.6234 8.2C93.4234 8.2 89.2234 12.4 89.2234 17.8C89.2234 23.2 93.4634 27.4 98.4234 27.4C103.183 27.4 106.063 24.6 107.023 21.6L101.423 21.2ZM94.8234 16.2C95.2634 14.6 96.5834 13.2 98.6234 13.2C100.663 13.2 101.983 14.6 102.423 16.2H94.8234ZM110.609 27H116.009V1.8H110.609V27ZM121.223 27H126.623V14.4H130.423V9.4H126.623V9.2C126.623 7.6 127.623 6.6 129.023 6.6C129.463 6.6 129.743 6.68 130.023 6.72L130.423 6.8V2L129.703 1.8C129.223 1.68 128.583 1.6 127.823 1.6C123.623 1.6 121.223 3.96 121.223 8.4V9.4H118.823V14.4H121.223V27ZM133.422 27H138.822V17.6C138.822 15.2 140.182 13.8 142.222 13.8C142.822 13.8 143.302 13.88 143.662 14L144.222 14.2V8.6L143.782 8.52C143.502 8.48 143.102 8.4 142.622 8.4C141.222 8.4 140.142 8.92 139.382 9.52C138.942 9.84 138.542 10.2 138.222 10.6L137.422 8.6H133.422V27ZM158.616 27H162.616V15.8C162.616 11.4 159.416 8.2 155.016 8.2C150.176 8.2 147.656 10.76 147.016 14.4L152.416 14.8C152.496 14.48 152.656 14.2 152.856 13.92C153.216 13.48 153.816 13 154.816 13C156.216 13 157.216 14 157.216 15.8C148.816 15.8 146.216 18.36 146.216 22C146.216 25.04 148.416 27.2 152.416 27.2C154.016 27.2 155.336 26.72 156.296 26.2C156.856 25.92 157.376 25.56 157.816 25.2L158.616 27ZM157.216 19.8C157.216 21.84 155.856 23.2 153.816 23.2C152.416 23.2 151.616 22.4 151.616 21.4C151.616 20 152.576 19 157.216 19V19.8ZM166.43 27H171.83V17.2C171.83 14.8 173.19 13.4 175.23 13.4C177.27 13.4 178.63 14.8 178.63 17.2V27H184.03V16.2C184.03 11.4 180.99 8.4 176.63 8.4C175.03 8.4 173.67 8.92 172.71 9.4C172.15 9.68 171.67 10.04 171.23 10.4L170.43 8.6H166.43V27ZM199.836 19.8C199.636 20.32 199.396 20.76 199.116 21.12C198.596 21.76 197.716 22.4 196.436 22.4C194.196 22.4 192.436 20.64 192.436 17.8C192.436 14.96 194.196 13.2 196.436 13.2C197.716 13.2 198.596 13.88 199.116 14.52C199.396 14.88 199.636 15.32 199.836 15.8L205.236 15.4C204.876 14.08 204.356 12.88 203.596 11.8C202.316 10 200.116 8.2 196.436 8.2C191.236 8.2 187.036 12.4 187.036 17.8C187.036 23.2 191.236 27.4 196.436 27.4C200.116 27.4 202.316 25.6 203.596 23.8C204.356 22.72 204.876 21.52 205.236 20.2L199.836 19.8ZM208.227 27H213.627V8.6H208.227V27ZM208.027 3.6C208.027 5.2 209.427 6.6 211.027 6.6C212.627 6.6 214.027 5.2 214.027 3.6C214.027 2 212.627 0.599999 211.027 0.599999C209.427 0.599999 208.027 2 208.027 3.6ZM216.841 21.4C217.441 25.04 219.841 27.4 224.841 27.4C229.481 27.4 232.241 24.6 232.241 21.6C232.241 15 222.841 16 222.841 14C222.841 13.2 223.401 12.6 224.641 12.6C225.881 12.6 226.641 13.4 226.841 14.2L232.041 13.8C231.441 10.6 229.041 8.2 224.241 8.2C219.881 8.2 217.241 10.8 217.241 13.8C217.241 20.4 226.641 19.44 226.641 21.4C226.641 22.2 225.841 23 224.441 23C223.041 23 222.241 22.24 222.041 21L216.841 21.4ZM234.653 24.2C234.653 25.8 236.053 27.2 237.653 27.2C239.253 27.2 240.653 25.8 240.653 24.2C240.653 22.6 239.253 21.2 237.653 21.2C236.053 21.2 234.653 22.6 234.653 24.2ZM243.852 27H249.252V16.6C249.252 14.56 250.452 13.4 251.852 13.4C253.252 13.4 254.452 14.56 254.452 16.6V27H259.852V16.6C259.852 14.56 261.052 13.4 262.452 13.4C263.852 13.4 265.052 14.56 265.052 16.6V27H270.452V16C270.452 11 267.852 8.4 263.852 8.4C262.252 8.4 260.892 9 259.932 9.6C259.372 9.96 258.892 10.36 258.452 10.8C258.172 10.36 257.772 9.96 257.292 9.6C256.452 9 255.132 8.4 253.252 8.4C251.852 8.4 250.692 8.92 249.892 9.4C249.412 9.68 249.012 10.04 248.652 10.4L247.852 8.6H243.852V27ZM285.642 21.2C285.482 21.44 285.282 21.64 285.002 21.8C284.562 22.12 283.842 22.4 282.842 22.4C280.802 22.4 279.482 21 279.042 19.6H291.642L291.722 19C291.762 18.64 291.842 18.24 291.842 17.8C291.842 12 287.842 8.2 282.842 8.2C277.642 8.2 273.442 12.4 273.442 17.8C273.442 23.2 277.682 27.4 282.642 27.4C287.402 27.4 290.282 24.6 291.242 21.6L285.642 21.2ZM279.042 16.2C279.482 14.6 280.802 13.2 282.842 13.2C284.882 13.2 286.202 14.6 286.642 16.2H279.042Z" fill="#FFF1DC"/>
</svg>
